<svg width="18" height="18" viewBox="0 0 18 18" fill="none" xmlns="http://www.w3.org/2000/svg">
<g clip-path="url(#clip0_1_254)">
<path d="M4.85452 2.18931L5.34267 2.40231C5.00406 2.60964 4.85127 2.81237 4.88992 3.00544C4.92968 3.20492 5.11202 3.3769 5.43238 3.51677C5.72746 3.64559 6.07513 3.71532 6.49542 3.73C6.90984 3.74436 7.54916 3.6278 8.39632 3.38326C8.60676 3.32236 8.77173 3.28691 8.88629 3.27809C8.99843 3.26926 9.08883 3.28185 9.17096 3.3178C9.2275 3.34247 9.39985 3.41754 8.96675 3.60671C8.68541 3.72949 8.39409 3.78004 8.10105 3.75699C7.86919 3.73892 7.63441 3.78166 7.50108 3.86644L7.24079 4.03196C7.12702 4.10425 7.10398 4.19669 7.17901 4.27799C7.25389 4.35929 7.41737 4.41866 7.61401 4.43631C8.25677 4.49401 8.89121 4.42 9.50075 4.21741L10.1597 4.50511C10.3939 4.60731 10.7732 4.60731 11.0073 4.50534C11.2413 4.40309 11.2413 4.23743 11.0073 4.13528L10.3254 3.83759C10.6249 3.64731 10.7825 3.45499 10.7935 3.26475C10.8067 3.04219 10.6269 2.84791 10.2593 2.68741C9.99694 2.57285 9.69767 2.50196 9.37035 2.47678C9.04298 2.45137 8.73266 2.46554 8.44858 2.51882C8.16832 2.5715 7.74177 2.67779 7.18337 2.83407C6.94036 2.90138 6.77554 2.93571 6.69294 2.93622C6.61402 2.93664 6.54326 2.92414 6.48845 2.90012C6.29389 2.81539 6.45737 2.70822 6.62874 2.63342C6.84151 2.54056 7.06853 2.49671 7.30337 2.50289C7.5388 2.50911 7.76086 2.45415 7.87007 2.36301L8.02105 2.23707C8.11657 2.15744 8.11146 2.06193 8.00772 1.98417C7.90408 1.90654 7.71617 1.85748 7.51028 1.85442C7.06342 1.848 6.63246 1.90775 6.19884 2.0362L5.70205 1.81939C5.46792 1.71719 5.08852 1.71719 4.85443 1.81939C4.62057 1.9215 4.62057 2.08716 4.85452 2.18931Z" fill="black"/>
<path d="M15.1645 4.83191C15.2042 4.66695 15.2245 4.49892 15.2245 4.32861V3.79029C15.2245 2.71466 14.4214 1.73116 12.9632 1.021C11.6113 0.362584 9.82415 0 7.931 0C6.03785 0 4.25076 0.362584 2.89882 1.021C1.44059 1.73116 0.637512 2.71466 0.637512 3.79029V4.32861C0.637512 5.38933 1.41889 6.36025 2.83889 7.06799C2.7995 7.23217 2.77409 7.43675 2.77409 7.56887V7.66708C1.39492 8.37195 0.637512 9.32953 0.637512 10.374V10.9124C0.637512 11.6377 1.00316 12.3209 1.68815 12.907C1.59547 13.1547 1.54715 13.4102 1.54715 13.6714V14.2097C1.54715 15.2853 2.35023 16.2688 3.80846 16.979C5.1604 17.6374 6.94749 18 8.84064 18C10.7338 18 12.5209 17.6374 13.8728 16.979C15.3311 16.2688 16.1341 15.2853 16.1341 14.2097V13.6714C16.1341 12.9462 15.7688 12.263 15.0841 11.6771C15.1767 11.4294 15.2244 11.1736 15.2244 10.9124V10.8142C16.6036 10.1093 17.361 9.1517 17.361 8.10715V7.56883C17.3611 6.50937 16.5814 5.53947 15.1645 4.83191ZM1.65679 3.33475C1.86802 2.79768 2.44337 2.27622 3.30563 1.85631C4.53335 1.25838 6.17601 0.929107 7.931 0.929107C9.68599 0.929107 11.3287 1.25838 12.5564 1.85631C13.4187 2.27622 13.994 2.79773 14.2052 3.33475C13.459 4.6328 10.8662 5.57929 7.93095 5.57929C4.99572 5.57929 2.403 4.63285 1.65679 3.33475ZM1.65679 9.91854C1.82853 9.4819 2.24217 9.05591 2.8539 8.68608C3.08956 9.53291 3.84353 10.296 5.03544 10.8765C6.38738 11.5349 8.17447 11.8975 10.0676 11.8975C10.2527 11.8975 10.4364 11.893 10.6191 11.8862C9.7926 12.0639 8.87989 12.1631 7.93104 12.1631C4.99581 12.1631 2.403 11.2166 1.65679 9.91854ZM15.1149 13.2158C14.3686 14.5139 11.7759 15.4604 8.84064 15.4604C6.2908 15.4604 4.00079 14.7458 2.95391 13.7072C4.29921 14.349 6.06308 14.7026 7.931 14.7026C9.82415 14.7026 11.6113 14.3401 12.9632 13.6817C13.6636 13.3405 14.2125 12.9362 14.5942 12.489C14.8405 12.7223 15.0172 12.9673 15.1149 13.2158ZM10.0676 9.35791C7.50482 9.35791 5.20328 8.63637 4.16366 7.58931C5.28634 7.93373 6.58124 8.11891 7.931 8.11891C9.82415 8.11891 11.6113 7.75632 12.9632 7.09796C13.7818 6.69928 14.3939 6.21442 14.7734 5.67554C15.5906 6.0883 16.1373 6.59336 16.3418 7.11338C15.5956 8.41139 13.0028 9.35791 10.0676 9.35791Z" fill="black"/>
</g>
<defs>
<clipPath id="clip0_1_254">
<rect width="18" height="18" fill="white"/>
</clipPath>
</defs>
</svg>
