<svg width="27" height="23" viewBox="0 0 27 23" fill="none" xmlns="http://www.w3.org/2000/svg">
<path d="M9.88743 21.6077C9.0894 21.6077 9.16195 21.3046 8.94431 20.547L6.62277 12.592L24.397 1.68216" fill="#B1B1B1"/>
<path d="M9.88763 21.6082C10.3955 21.6082 10.6857 21.3051 11.0484 21.0021L14.3131 17.7443L10.2504 15.1684" fill="#898989"/>
<path d="M10.2503 15.1682L20.0443 22.6687C21.0599 23.3505 21.9305 22.9717 22.2207 21.608L26.2108 2.06131C26.5736 0.394534 25.5579 -0.363091 24.4697 0.167246L1.18177 9.56179C-0.341734 10.1679 -0.341734 11.1528 0.891582 11.5316L6.91306 13.5014L20.6972 4.33418C21.3501 3.95537 21.9305 4.10689 21.4952 4.63723" fill="white"/>
</svg>
